<svg width="283" height="283" viewBox="0 0 283 283" fill="none" xmlns="http://www.w3.org/2000/svg">
<g clipPath="url(#clip0_5504_4174)">
<path d="M10.9656 123.603C15.2102 128.006 20.9676 130.48 26.9712 130.48C31.4816 130.48 35.8519 129.083 39.5472 126.522L23.4338 143.234C19.1891 147.636 16.8036 153.607 16.8036 159.834C16.8036 166.06 19.1883 172.031 23.4338 176.434C27.6784 180.836 33.4358 183.31 39.4394 183.31C43.9489 183.31 48.3201 181.913 52.0154 179.353L43.5584 188.124C39.3138 192.526 36.9283 198.498 36.9283 204.724C36.9283 210.951 39.3129 216.922 43.5584 221.324C47.8031 225.726 53.5605 228.2 59.5641 228.2C64.0736 228.2 68.4447 226.804 72.1401 224.244L70.0738 226.387C65.8292 230.789 63.4437 236.76 63.4437 242.987C63.4437 249.213 65.8283 255.184 70.0738 259.586C74.3184 263.989 80.0759 266.463 86.0795 266.463C92.0831 266.463 97.8405 263.99 102.085 259.586L123.535 237.34C121.065 241.173 119.72 245.706 119.72 250.383C119.72 256.61 122.105 262.581 126.35 266.983C130.595 271.385 136.352 273.859 142.356 273.859C148.359 273.859 154.117 271.386 158.361 266.983L190.953 233.182C188.483 237.014 187.137 241.548 187.137 246.225C187.137 252.451 189.522 258.423 193.768 262.825C198.012 267.227 203.77 269.701 209.773 269.701C215.777 269.701 221.534 267.228 225.779 262.825L276.517 210.203C280.761 205.801 283.147 199.83 283.147 193.603C283.147 187.377 280.762 181.405 276.517 177.003C272.272 172.601 266.515 170.127 260.511 170.127C256.002 170.127 251.63 171.523 247.935 174.084L258.556 163.068C262.801 158.666 265.186 152.695 265.186 146.468C265.186 140.242 262.801 134.271 258.556 129.869C254.311 125.466 248.554 122.992 242.55 122.992C238.041 122.992 233.67 124.389 229.974 126.949L251.424 104.703C255.669 100.3 258.054 94.3293 258.054 88.1028C258.054 81.8763 255.67 75.9051 251.424 71.5028C247.18 67.1006 241.422 64.6266 235.418 64.6266C230.909 64.6266 226.538 66.0229 222.842 68.5833L236.503 54.416C240.747 50.0138 243.133 44.0426 243.133 37.8161C243.133 31.5896 240.748 25.6184 236.503 21.2161C232.258 16.8139 226.501 14.3398 220.497 14.3398C214.493 14.3398 208.736 16.813 204.491 21.2161L174.064 52.7731C176.534 48.9405 177.879 44.4071 177.879 39.7302C177.879 33.5036 175.494 27.5325 171.249 23.1302C167.004 18.728 161.247 16.2539 155.243 16.2539C149.24 16.2539 143.482 18.7271 139.238 23.1302L96.5289 67.4246C98.9985 63.592 100.345 59.0586 100.345 54.3808C100.345 48.1543 97.9602 42.1831 93.7147 37.7809C89.4701 33.3786 83.7127 30.9046 77.7091 30.9046C71.7055 30.9046 65.948 33.3777 61.7034 37.7809L10.9656 90.4025C6.72093 94.8047 4.33545 100.776 4.33545 107.002C4.33545 113.229 6.72009 119.2 10.9656 123.602V123.603Z" fill="white"/>
<path d="M262.116 190.704L260.55 192.329C259.938 192.963 259.938 193.993 260.55 194.628C261.162 195.262 262.154 195.262 262.766 194.628L264.332 193.003L265.899 194.628C266.511 195.262 267.503 195.262 268.115 194.628C268.727 193.993 268.727 192.963 268.115 192.329L266.549 190.704L268.115 189.08C268.727 188.445 268.727 187.416 268.115 186.781C267.809 186.463 267.408 186.305 267.007 186.305C266.605 186.305 266.204 186.463 265.898 186.781L264.332 188.405L262.765 186.781C262.459 186.463 262.058 186.305 261.657 186.305C261.255 186.305 260.854 186.463 260.548 186.781C259.936 187.416 259.936 188.445 260.548 189.08L262.114 190.704H262.116Z" fill="white"/>
<path d="M58.6813 258.659L57.1151 260.284C56.503 260.919 56.503 261.948 57.1151 262.583C57.7271 263.217 58.7195 263.217 59.3316 262.583L60.8979 260.958L62.4641 262.583C63.0762 263.217 64.0686 263.217 64.6807 262.583C65.2928 261.948 65.2928 260.919 64.6807 260.284L63.1144 258.659L64.6807 257.035C65.2928 256.4 65.2928 255.371 64.6807 254.736C64.3742 254.418 63.9735 254.26 63.572 254.26C63.1704 254.26 62.7698 254.418 62.4633 254.736L60.897 256.361L59.3308 254.736C59.0243 254.418 58.6236 254.26 58.2221 254.26C57.8205 254.26 57.4198 254.418 57.1134 254.736C56.5013 255.371 56.5013 256.4 57.1134 257.035L58.6796 258.659H58.6813Z" fill="white"/>
<path d="M18.6056 114.681L17.0394 116.305C16.4273 116.94 16.4273 117.969 17.0394 118.604C17.6514 119.239 18.6438 119.239 19.2559 118.604L20.8222 116.98L22.3885 118.604C23.0005 119.239 23.9929 119.239 24.605 118.604C25.2171 117.969 25.2171 116.94 24.605 116.305L23.0387 114.681L24.605 113.056C25.2171 112.422 25.2171 111.392 24.605 110.758C24.2985 110.44 23.8979 110.281 23.4963 110.281C23.0948 110.281 22.6941 110.44 22.3876 110.758L20.8213 112.382L19.2551 110.758C18.9486 110.44 18.5479 110.281 18.1464 110.281C17.7448 110.281 17.3441 110.44 17.0377 110.758C16.4256 111.392 16.4256 112.422 17.0377 113.056L18.6039 114.681H18.6056Z" fill="white"/>
<path d="M207.118 31.1926L205.552 32.817C204.94 33.4518 204.94 34.481 205.552 35.1158C206.164 35.7506 207.157 35.7506 207.769 35.1158L209.335 33.4914L210.901 35.1158C211.513 35.7506 212.506 35.7506 213.118 35.1158C213.73 34.481 213.73 33.4518 213.118 32.817L211.551 31.1926L213.118 29.5681C213.73 28.9333 213.73 27.9041 213.118 27.2693C212.811 26.9515 212.411 26.793 212.009 26.793C211.607 26.793 211.207 26.9515 210.9 27.2693L209.334 28.8937L207.768 27.2693C207.461 26.9515 207.061 26.793 206.659 26.793C206.258 26.793 205.857 26.9515 205.55 27.2693C204.938 27.9041 204.938 28.9333 205.55 29.5681L207.117 31.1926H207.118Z" fill="white"/>
<path d="M178.442 260.926C180.967 260.926 183.021 263.056 183.021 265.675C183.021 268.293 180.967 270.424 178.442 270.424C175.918 270.424 173.863 268.293 173.863 265.675C173.863 263.056 175.918 260.926 178.442 260.926ZM178.442 267.173C179.239 267.173 179.886 266.501 179.886 265.675C179.886 264.849 179.239 264.177 178.442 264.177C177.646 264.177 176.998 264.849 176.998 265.675C176.998 266.501 177.646 267.173 178.442 267.173Z" fill="white"/>
<path d="M264.744 109.604C267.268 109.604 269.323 111.734 269.323 114.353C269.323 116.971 267.268 119.102 264.744 119.102C262.219 119.102 260.165 116.971 260.165 114.353C260.165 111.734 262.219 109.604 264.744 109.604ZM264.744 115.85C265.54 115.85 266.188 115.178 266.188 114.353C266.188 113.527 265.54 112.855 264.744 112.855C263.947 112.855 263.3 113.527 263.3 114.353C263.3 115.178 263.947 115.85 264.744 115.85Z" fill="white"/>
<path d="M73.0518 33.3789C75.5765 33.3789 77.6309 35.5096 77.6309 38.128C77.6309 40.7465 75.5765 42.8772 73.0518 42.8772C70.5271 42.8772 68.4727 40.7465 68.4727 38.128C68.4727 35.5096 70.5271 33.3789 73.0518 33.3789ZM73.0518 39.6257C73.8481 39.6257 74.4958 38.9539 74.4958 38.128C74.4958 37.3022 73.8481 36.6304 73.0518 36.6304C72.2555 36.6304 71.6077 37.3022 71.6077 38.128C71.6077 38.9539 72.2555 39.6257 73.0518 39.6257Z" fill="white"/>
<path d="M28.3418 185.764C30.8665 185.764 32.9209 187.894 32.9209 190.513C32.9209 193.131 30.8665 195.262 28.3418 195.262C25.8171 195.262 23.7627 193.131 23.7627 190.513C23.7627 187.894 25.8171 185.764 28.3418 185.764ZM28.3418 192.01C29.1381 192.01 29.7858 191.339 29.7858 190.513C29.7858 189.687 29.1381 189.015 28.3418 189.015C27.5455 189.015 26.8978 189.687 26.8978 190.513C26.8978 191.339 27.5455 192.01 28.3418 192.01Z" fill="white"/>
<path d="M10.9665 123.601C15.2112 128.004 20.9686 130.478 26.9722 130.478C31.4826 130.478 35.8528 129.081 39.5482 126.52L23.4347 143.232C19.1901 147.634 16.8046 153.605 16.8046 159.832C16.8046 166.058 19.1893 172.029 23.4347 176.432C27.6794 180.834 33.4368 183.308 39.4404 183.308C43.9499 183.308 48.321 181.912 52.0164 179.351L43.5594 188.122C39.3148 192.524 36.9293 198.496 36.9293 204.722C36.9293 210.949 39.3139 216.92 43.5594 221.322C47.804 225.724 53.5615 228.198 59.5651 228.198C64.0746 228.198 68.4457 226.802 72.1411 224.242L70.0748 226.385C65.8302 230.787 63.4447 236.758 63.4447 242.985C63.4447 249.211 65.8293 255.182 70.0748 259.585C74.3194 263.987 80.0769 266.461 86.0805 266.461C92.0841 266.461 97.8415 263.988 102.086 259.585L123.536 237.338C121.066 241.171 119.721 245.704 119.721 250.381C119.721 256.608 122.106 262.579 126.351 266.981C130.596 271.383 136.353 273.857 142.357 273.857C148.36 273.857 154.118 271.384 158.362 266.981L190.954 233.18C188.484 237.013 187.138 241.546 187.138 246.223C187.138 252.449 189.523 258.421 193.769 262.823C198.013 267.225 203.771 269.699 209.774 269.699C215.778 269.699 221.535 267.226 225.78 262.823L276.518 210.201C280.762 205.799 283.148 199.828 283.148 193.601C283.148 187.375 280.763 181.404 276.518 177.001C272.273 172.599 266.516 170.125 260.512 170.125C256.003 170.125 251.631 171.521 247.936 174.082L258.557 163.066C262.802 158.664 265.187 152.693 265.187 146.467C265.187 140.24 262.802 134.269 258.557 129.867C254.312 125.464 248.555 122.99 242.551 122.99C238.042 122.99 233.671 124.387 229.975 126.947L251.425 104.701C255.67 100.299 258.055 94.3273 258.055 88.1008C258.055 81.8743 255.671 75.9031 251.425 71.5009C247.181 67.0987 241.423 64.6246 235.419 64.6246C230.91 64.6246 226.539 66.021 222.843 68.5813L236.504 54.4141C240.748 50.0118 243.134 44.0406 243.134 37.8141C243.134 31.5876 240.749 25.6164 236.504 21.2142C232.259 16.8119 226.501 14.3379 220.498 14.3379C214.494 14.3379 208.737 16.8111 204.492 21.2142L174.065 52.7711C176.534 48.9386 177.88 44.4051 177.88 39.7282C177.88 33.5017 175.495 27.5305 171.25 23.1283C167.005 18.726 161.248 16.252 155.244 16.252C149.241 16.252 143.483 18.7252 139.239 23.1283L96.5299 67.4227C98.9994 63.5901 100.346 59.0567 100.346 54.3788C100.346 48.1523 97.9612 42.1811 93.7157 37.7789C89.4711 33.3767 83.7137 30.9026 77.71 30.9026C71.7064 30.9026 65.949 33.3758 61.7044 37.7789L10.9665 90.4006C6.72191 94.8028 4.33643 100.774 4.33643 107C4.33643 113.227 6.72106 119.198 10.9665 123.6V123.601Z" fill="#F2F5F8"/>
<path d="M262.115 190.702L260.549 192.327C259.937 192.962 259.937 193.991 260.549 194.626C261.161 195.26 262.153 195.26 262.765 194.626L264.331 193.001L265.898 194.626C266.51 195.26 267.502 195.26 268.114 194.626C268.726 193.991 268.726 192.962 268.114 192.327L266.548 190.702L268.114 189.078C268.726 188.443 268.726 187.414 268.114 186.779C267.808 186.461 267.407 186.303 267.006 186.303C266.604 186.303 266.203 186.461 265.897 186.779L264.331 188.403L262.764 186.779C262.458 186.461 262.057 186.303 261.656 186.303C261.254 186.303 260.853 186.461 260.547 186.779C259.935 187.414 259.935 188.443 260.547 189.078L262.113 190.702H262.115Z" fill="#485A6F"/>
<path d="M129 267.726L127.434 269.35C126.822 269.985 126.822 271.014 127.434 271.649C128.046 272.284 129.038 272.284 129.65 271.649L131.217 270.025L132.783 271.649C133.395 272.284 134.387 272.284 135 271.649C135.612 271.014 135.612 269.985 135 269.35L133.433 267.726L135 266.101C135.612 265.467 135.612 264.437 135 263.802C134.693 263.485 134.292 263.326 133.891 263.326C133.489 263.326 133.089 263.485 132.782 263.802L131.216 265.427L129.65 263.802C129.343 263.485 128.942 263.326 128.541 263.326C128.139 263.326 127.739 263.485 127.432 263.802C126.82 264.437 126.82 265.467 127.432 266.101L128.998 267.726H129Z" fill="#485A6F"/>
<path d="M2.02703 96.7785L0.460757 98.4029C-0.15132 99.0377 -0.15132 100.067 0.460757 100.702C1.07283 101.337 2.06523 101.337 2.6773 100.702L4.24357 99.0773L5.80984 100.702C6.42192 101.337 7.41431 101.337 8.02639 100.702C8.63846 100.067 8.63846 99.0377 8.02639 98.4029L6.46012 96.7785L8.02639 95.1541C8.63846 94.5193 8.63846 93.49 8.02639 92.8552C7.71993 92.5374 7.31924 92.3789 6.91769 92.3789C6.51615 92.3789 6.11545 92.5374 5.80899 92.8552L4.24273 94.4797L2.67645 92.8552C2.36999 92.5374 1.9693 92.3789 1.56776 92.3789C1.16621 92.3789 0.76552 92.5374 0.459057 92.8552C-0.153019 93.49 -0.153019 94.5193 0.459057 95.1541L2.02533 96.7785H2.02703Z" fill="#0277FA"/>
<path d="M156.253 14.3996L154.686 16.024C154.074 16.6588 154.074 17.6881 154.686 18.3229C155.298 18.9577 156.291 18.9577 156.903 18.3229L158.469 16.6984L160.035 18.3229C160.648 18.9577 161.64 18.9577 162.252 18.3229C162.864 17.6881 162.864 16.6588 162.252 16.024L160.686 14.3996L162.252 12.7752C162.864 12.1404 162.864 11.1111 162.252 10.4763C161.946 10.1585 161.545 10 161.143 10C160.742 10 160.341 10.1585 160.035 10.4763L158.468 12.1007L156.902 10.4763C156.596 10.1585 156.195 10 155.793 10C155.392 10 154.991 10.1585 154.685 10.4763C154.073 11.1111 154.073 12.1404 154.685 12.7752L156.251 14.3996H156.253Z" fill="#0277FA"/>
<path d="M264.743 109.602C267.268 109.602 269.322 111.732 269.322 114.351C269.322 116.969 267.268 119.1 264.743 119.1C262.218 119.1 260.164 116.969 260.164 114.351C260.164 111.732 262.218 109.602 264.743 109.602ZM264.743 115.848C265.539 115.848 266.187 115.177 266.187 114.351C266.187 113.525 265.539 112.853 264.743 112.853C263.947 112.853 263.299 113.525 263.299 114.351C263.299 115.177 263.947 115.848 264.743 115.848Z" fill="#0FCE80"/>
<path d="M28.3408 185.76C30.8655 185.76 32.9199 187.89 32.9199 190.509C32.9199 193.127 30.8655 195.258 28.3408 195.258C25.8161 195.258 23.7617 193.127 23.7617 190.509C23.7617 187.89 25.8161 185.76 28.3408 185.76ZM28.3408 192.007C29.1371 192.007 29.7849 191.335 29.7849 190.509C29.7849 189.683 29.1371 189.011 28.3408 189.011C27.5445 189.011 26.8968 189.683 26.8968 190.509C26.8968 191.335 27.5445 192.007 28.3408 192.007Z" fill="#0FCE80"/>
<path d="M39.8434 174.739C38.3948 175.942 39.091 178.292 40.955 178.528C53.3854 180.069 65.8157 181.227 78.1786 183.318C84.4893 184.386 90.7662 185.612 97.0094 187.04C102.927 188.389 108.744 190.312 114.717 191.403C115.795 191.594 116.828 190.863 116.986 189.784C121.05 162.449 150.515 141.164 186.178 141.164C199.607 141.164 212.161 144.189 222.806 149.418C224.67 150.328 226.927 149.687 227.971 147.9C233.788 138.039 237.056 127.076 237.056 115.528C237.056 72.5758 192.219 37.6406 137.108 37.6406C81.9964 37.6406 37.1484 72.5758 37.1484 115.517C37.1484 130.932 42.9201 145.786 53.8682 158.593L53.7784 158.66C54.4409 159.357 54.497 160.437 53.9131 161.201C51.4652 164.361 45.4016 170.107 39.8434 174.739ZM71.2954 80.9639H200.101C200.517 80.9639 200.843 81.3012 200.843 81.706V87.3055C200.843 87.7215 200.506 88.0476 200.101 88.0476H71.2954C70.8799 88.0476 70.5543 87.7103 70.5543 87.3055V81.706C70.5543 81.29 70.8911 80.9639 71.2954 80.9639ZM71.2954 107.252H200.101C200.517 107.252 200.843 107.59 200.843 107.995V113.594C200.843 114.01 200.506 114.336 200.101 114.336H71.2954C70.8799 114.336 70.5543 113.999 70.5543 113.594V107.995C70.5543 107.578 70.8911 107.252 71.2954 107.252ZM71.2954 133.541H138.792C139.207 133.541 139.533 133.878 139.533 134.283V139.883C139.533 140.299 139.196 140.625 138.792 140.625H71.2954C70.8799 140.625 70.5543 140.287 70.5543 139.883V134.283C70.5543 133.867 70.8911 133.541 71.2954 133.541Z" fill="#485A6F"/>
<path d="M122.196 196.261C122.196 223.483 150.908 245.633 186.178 245.633C193.982 245.633 201.651 244.531 208.972 242.361C209.938 242.08 210.982 242.316 211.723 243.002L226.029 256.236C226.961 257.102 228.466 256.439 228.466 255.168V234.704C228.466 233.782 228.915 232.916 229.656 232.377C242.681 223.033 250.149 209.866 250.149 196.249C250.149 169.028 221.436 146.877 186.178 146.877C150.919 146.877 122.196 169.028 122.196 196.249V196.261Z" fill="#0277FA"/>
<path d="M199.955 80.9648H71.4525C70.9564 80.9648 70.5542 81.3676 70.5542 81.8644V87.1491C70.5542 87.6459 70.9564 88.0486 71.4525 88.0486H199.955C200.452 88.0486 200.854 87.6459 200.854 87.1491V81.8644C200.854 81.3676 200.452 80.9648 199.955 80.9648Z" fill="#C4E0FF"/>
<path d="M200.034 107.252H71.3739C70.9212 107.252 70.5542 107.619 70.5542 108.073V113.515C70.5542 113.968 70.9212 114.336 71.3739 114.336H200.034C200.487 114.336 200.854 113.968 200.854 113.515V108.073C200.854 107.619 200.487 107.252 200.034 107.252Z" fill="#C4E0FF"/>
<path d="M138.657 133.541H71.4301C70.9463 133.541 70.5542 133.934 70.5542 134.418V139.748C70.5542 140.232 70.9463 140.625 71.4301 140.625H138.657C139.141 140.625 139.533 140.232 139.533 139.748V134.418C139.533 133.934 139.141 133.541 138.657 133.541Z" fill="#C4E0FF"/>
</g>
<defs>
<clipPath id="clip0_5504_4174">
<rect width="283" height="283" fill="white"/>
</clipPath>
</defs>
</svg>
