<svg width="840" height="188" viewBox="0 0 840 188" fill="none" xmlns="http://www.w3.org/2000/svg">
<g clipPath="url(#clip0_4242_10776)">
<path d="M61.4279 113.057L61.2237 112.623L61.1235 112.559L61.4279 113.057ZM57.1205 103.617C58.0696 106.262 59.1238 108.826 60.3451 111.278C60.474 111.369 60.6029 111.458 60.7319 111.548C60.0132 109.946 59.3351 108.312 58.6856 106.651C58.1687 105.643 57.6494 104.63 57.1205 103.617ZM54.6325 95.7872C54.9847 97.0174 55.3464 98.2367 55.7249 99.4445C56.0436 100.027 56.3576 100.612 56.6692 101.196C56.2693 100.062 55.8741 98.9171 55.4837 97.7674C55.202 97.1074 54.9202 96.448 54.6325 95.7872ZM57.4381 107.988C57.7508 108.604 58.078 109.21 58.4194 109.807C58.5304 109.9 58.6426 109.992 58.7584 110.082C58.3227 109.385 57.8846 108.686 57.4393 107.988H57.4381ZM52.911 95.9084C53.6595 98.6176 54.5096 101.25 55.5255 103.774C56.2024 104.779 56.865 105.786 57.5157 106.795C56.5713 104.449 55.7321 102.028 54.9572 99.5533C54.2923 98.3361 53.6118 97.1197 52.911 95.9077V95.9084ZM50.9746 87.812C51.3709 89.6914 51.79 91.549 52.246 93.3769C52.8441 94.3619 53.4255 95.3506 53.9926 96.3421C53.4972 94.6238 53.022 92.8844 52.554 91.1312C52.0431 90.0222 51.5178 88.9146 50.9746 87.812ZM49.6936 81.3746C49.9312 82.6171 50.1711 83.8546 50.4171 85.084C50.8039 85.8268 51.1823 86.5724 51.5524 87.3195L51.5047 87.1353C51.2145 86.0277 50.9244 84.9157 50.6296 83.8031C50.3263 82.9921 50.0147 82.1826 49.6948 81.3753L49.6936 81.3746ZM44.3464 62.5438C44.1649 61.3289 43.9751 60.1154 43.7685 58.9069C43.482 58.0003 43.1824 57.0979 42.8648 56.2021C42.9675 57.478 43.0606 58.7546 43.1477 60.0305C43.5656 60.8625 43.9631 61.701 44.3464 62.5438ZM45.3802 70.2129C45.1761 68.5969 44.9695 66.9757 44.7475 65.3567C44.2843 64.2295 43.7972 63.1118 43.2791 62.0035L43.4462 64.6111L43.6062 67.115C44.2258 68.137 44.8155 69.1706 45.3802 70.2122V70.2129ZM46.3747 78.0329C46.1192 76.1311 45.8793 74.2132 45.6393 72.2867C45.0292 71.0877 44.3893 69.8981 43.7124 68.7209C43.8497 70.7453 43.9977 72.7553 44.1756 74.7413C44.9409 75.8279 45.6739 76.9253 46.3747 78.0329ZM47.6748 86.4361C47.2749 84.255 46.9298 82.0332 46.6135 79.7832C45.8804 78.5689 45.1152 77.3656 44.3093 76.1753C44.5398 78.5363 44.8203 80.8603 45.1785 83.1307C46.044 84.2216 46.8737 85.3248 47.6748 86.4361ZM49.9885 96.1289C49.185 93.5423 48.5391 90.8563 47.9912 88.0993C47.1674 86.9083 46.3102 85.726 45.416 84.556C45.9294 87.4914 46.5908 90.3305 47.4647 93.0396C48.3338 94.0609 49.1743 95.0916 49.9873 96.1289H49.9885ZM53.6512 104.97C52.4669 102.793 51.4796 100.498 50.6427 98.1084C49.8166 97.0138 48.9677 95.9272 48.0879 94.8479C49.4381 98.5175 51.2336 101.922 53.6512 104.97ZM60.1982 112.663L60.2424 112.707C60.0454 112.332 59.8496 111.955 59.661 111.577L59.3422 111.347C59.6192 111.791 59.9045 112.229 60.1994 112.662L60.1982 112.663ZM52.3308 100.403C53.4196 103.069 54.7352 105.595 56.3397 107.949C56.4925 108.097 56.6465 108.245 56.8029 108.392C56.0484 106.931 55.3679 105.426 54.7483 103.881C53.9652 102.718 53.1581 101.557 52.3296 100.403H52.3308ZM49.1432 89.8068C49.7604 92.6284 50.497 95.3658 51.4163 97.988C52.2138 99.0462 52.9862 100.11 53.7395 101.178C52.8716 98.6944 52.1338 96.1224 51.476 93.4893C50.7263 92.2548 49.9503 91.0253 49.1432 89.8068ZM47.6652 81.5661C47.9888 83.7378 48.3469 85.8812 48.7636 87.9818C49.5169 89.0734 50.2428 90.1738 50.9459 91.2799C50.4827 89.2765 50.0553 87.2419 49.6458 85.1863C49.0107 83.9721 48.3541 82.7644 47.6652 81.5661ZM46.6994 74.4432C46.9203 76.2 47.1471 77.9459 47.3907 79.6766C48.0043 80.6964 48.5964 81.7235 49.1683 82.7571C48.9689 81.7293 48.7731 80.6986 48.5761 79.6635L48.2192 77.7986C47.7333 76.6736 47.2283 75.5559 46.6994 74.4432ZM45.9425 68.4177C46.1013 69.6559 46.2553 70.8919 46.4093 72.1257L46.4177 72.191C46.8248 72.9917 47.2199 73.7976 47.5996 74.6071C47.3632 73.4117 47.1208 72.2156 46.8678 71.0202C46.5705 70.1498 46.2637 69.2816 45.9437 68.4177H45.9425ZM45.4948 65.0434L45.5271 65.2755L45.5927 65.4365L45.4948 65.0427V65.0434ZM42.5604 52.735L42.6224 53.3827L42.8015 53.844C42.7239 53.4734 42.6427 53.1042 42.5592 52.735H42.5604ZM364.201 188H365.793C369.957 186.588 373.991 185.482 377.939 184.777C387.468 183.073 396.519 183.71 405.68 188H406.918C397.28 183.259 387.768 182.523 377.718 184.319C373.328 185.103 368.841 186.372 364.201 188ZM-0.000209964 180.974V181.542C5.55356 183.739 11.0906 185.894 16.6098 188.001H18.0889C12.0803 185.712 6.0502 183.369 -0.000209964 180.974V180.974ZM-0.000209964 171.947V172.514C3.84158 174.013 7.66786 175.498 11.4798 176.967L15.6284 178.568C23.9579 181.779 32.1405 184.935 40.1942 188H41.6769C33.2806 184.808 24.7446 181.517 16.0486 178.163L11.8988 176.563C7.94841 175.04 3.98126 173.501 -0.00140381 171.946L-0.000209964 171.947ZM-0.000209964 162.915V163.48L11.3115 167.836C24.8473 173.046 37.7611 178.287 50.2081 183.337C54.0893 184.912 57.9263 186.47 61.7228 188.001H63.1482C59.0283 186.34 54.8641 184.65 50.6439 182.939C38.2243 177.899 25.3368 172.67 11.7317 167.432C7.84335 165.936 3.93231 164.431 -0.000209964 162.915V162.915ZM-0.000209964 153.88V154.445C3.74966 155.873 7.46729 157.294 11.1408 158.705C30.493 166.14 47.9148 173.893 64.3612 181.212C69.5604 183.526 74.6628 185.796 79.6973 187.999H81.0416C75.7218 185.675 70.328 183.277 64.8256 180.828C48.3648 173.502 30.9299 165.743 11.5586 158.299C7.71919 156.825 3.86546 155.352 -0.00140381 153.88L-0.000209964 153.88ZM-0.000209964 144.844V145.406C3.68996 146.796 7.3491 148.185 10.9712 149.573C33.6949 158.293 52.9898 167.856 70.9846 176.775C78.8664 180.682 86.4974 184.465 94.0616 188H95.3522C87.5289 184.359 79.6388 180.448 71.4801 176.405C53.4709 167.478 34.1629 157.907 11.3915 149.169C7.62368 147.725 3.82368 146.284 -0.00140381 144.844H-0.000209964ZM-0.000209964 135.806V136.366C3.63505 137.72 7.23807 139.079 10.8029 140.443C35.7268 149.99 55.59 161.04 73.98 171.271C84.7926 177.286 95.0979 183.018 105.629 188.001H106.915C96.1234 182.941 85.5841 177.078 74.5112 170.918C56.0986 160.675 36.2127 149.612 11.2195 140.039C7.51743 138.622 3.77592 137.212 -0.000209964 135.806ZM-0.000209964 126.763V127.321C3.58252 128.642 7.12943 129.971 10.6346 131.31C37.0902 141.429 56.7898 153.784 74.9565 165.177C88.6881 173.788 101.548 181.851 115.793 188H117.169C102.599 181.827 89.5143 173.621 75.52 164.845C57.3235 153.432 37.5916 141.056 11.0512 130.906C7.40879 129.514 3.72339 128.134 -0.000209964 126.763V126.763ZM-0.000209964 117.719V118.277C3.5276 119.566 7.01721 120.865 10.4638 122.18C38.0321 132.706 57.1265 146.253 74.6999 158.723C91.5008 170.645 106.923 181.584 127.045 188H128.786C108.099 181.685 92.4177 170.56 75.2968 158.412C57.6852 145.916 38.5526 132.341 10.8817 121.775C7.30015 120.408 3.67086 119.057 -0.000209964 117.719ZM-0.000209964 108.673V109.229C3.47507 110.486 6.90857 111.759 10.2943 113.048C38.6983 123.878 56.8984 138.537 73.6445 152.026C95.8452 169.908 115.509 185.743 152.998 188H181.858C230.928 185.295 261.59 168.98 286.308 155.824C297.764 149.728 307.939 144.312 318.054 141.269C340.047 134.651 361.927 139.27 396.637 172.559C366.633 144.346 346.153 140.274 325.256 146.216C314.7 149.218 304.074 154.778 292.058 161.066C274.077 170.476 252.96 181.521 224.366 188.001H226.598C254.313 181.444 274.942 170.654 292.571 161.428C304.544 155.163 315.131 149.623 325.59 146.649C345.547 140.973 365.181 144.653 393.528 170.521C369.457 149.654 351.393 146.62 332.798 151.609C321.896 154.533 310.856 160.214 298.317 166.669C284.602 173.727 269.082 181.712 250.017 188H251.672C270.209 181.761 285.381 173.954 298.825 167.033C311.321 160.601 322.324 154.939 333.114 152.045C351.816 147.028 370.028 150.331 394.694 172.361C374.005 155.267 357.476 152.688 340.323 157.019C329.089 159.855 317.632 165.657 304.56 172.276C294.519 177.361 283.516 182.931 270.943 188.001H272.368C284.557 183.027 295.267 177.606 305.067 172.644C318.089 166.049 329.505 160.269 340.624 157.461C358.36 152.982 375.466 156.079 397.468 175.525C379.197 160.96 363.866 158.646 347.835 162.447C336.278 165.186 324.402 171.105 310.796 177.885C304.258 181.143 297.317 184.601 289.822 188H291.139C298.321 184.72 304.996 181.394 311.298 178.254C324.853 171.5 336.684 165.604 348.121 162.891C365.017 158.886 381.162 161.845 401.011 179.272C384.673 166.663 370.383 164.55 355.331 167.892C343.467 170.527 331.17 176.558 317.024 183.498C314.032 184.966 310.955 186.475 307.784 188.001H309.047C311.947 186.602 314.768 185.219 317.517 183.87C331.607 176.958 343.852 170.95 355.602 168.342C371.782 164.749 387.105 167.621 405.219 183.509C390.428 172.389 377.023 170.407 362.813 173.354C351.281 175.745 339.264 181.382 325.541 188.001H326.806C340.15 181.572 351.876 176.125 363.066 173.806C378.57 170.592 393.129 173.4 409.727 187.941C396.272 178.103 383.693 176.242 370.274 178.831C361.913 180.443 353.249 183.786 343.851 188.001H345.177C354.184 183.995 362.507 180.829 370.513 179.285C383.517 176.777 395.743 178.568 408.821 188.001H412.644C368.399 140.238 343.176 133.18 317.706 140.843C307.501 143.913 297.287 149.348 285.791 155.467C257.073 170.751 220.306 190.318 155.869 187.67C116.89 186.068 96.9102 169.973 74.2737 151.739C57.4858 138.216 39.2379 123.519 10.7134 112.644C7.19151 111.302 3.61833 109.981 0.000983881 108.674L-0.000209964 108.673ZM-0.000209964 99.6251V100.181C3.42016 101.409 6.79635 102.653 10.1248 103.918C39.1675 114.973 56.2848 130.687 72.0447 145.158C92.6613 164.085 110.972 180.895 150.587 182.524C215.457 185.19 251.687 165.575 280.033 150.226C290.977 144.3 300.745 139.011 310.507 135.91C336.669 127.598 363.052 135.006 412.983 188.001H413.883C363.483 134.47 336.755 127.031 310.14 135.488C300.291 138.617 290.491 143.923 279.509 149.869C251.27 165.16 215.178 184.7 150.64 182.047C111.412 180.435 93.2033 163.717 72.7014 144.895C56.8925 130.381 39.7274 114.621 10.5414 103.512C7.07929 102.196 3.56342 100.902 -0.00140381 99.6265L-0.000209964 99.6251ZM-0.000209964 90.5756V91.1298C3.36524 92.3273 6.68652 93.5452 9.95526 94.7855C39.4981 106.012 55.4002 122.735 70.0677 138.158C88.6977 157.75 105.346 175.255 145.362 176.9C210.335 179.571 245.882 159.984 273.751 144.629C284.19 138.875 293.548 133.719 302.955 130.568C330.171 121.45 358.028 129.163 414.658 188H415.568C358.448 128.613 330.247 120.879 302.574 130.149C293.092 133.327 283.7 138.502 273.223 144.274C245.464 159.57 210.054 179.08 145.417 176.423C105.82 174.796 89.2707 157.395 70.7506 137.918C56.0365 122.446 40.0819 105.668 10.3767 94.3786C6.97304 93.0868 3.51328 91.821 0.00456542 90.5749L-0.000209964 90.5756ZM-0.000209964 81.524V82.0767C3.31032 83.2467 6.57549 84.4377 9.78574 85.6541C39.719 97.0116 54.3209 114.706 67.8126 131.058C84.5682 151.363 99.625 169.612 140.132 171.276C205.203 173.951 240.063 154.397 267.451 139.034C277.394 133.457 286.351 128.433 295.386 125.246C323.582 115.301 352.881 123.226 416.802 188H417.719C353.288 122.666 323.646 114.728 294.993 124.834C285.877 128.049 276.894 133.088 266.92 138.684C239.64 153.986 204.92 173.462 140.186 170.8C100.125 169.154 85.1627 151.021 68.5145 130.843C54.9752 114.434 40.3219 96.6773 10.2024 85.2487C6.85724 83.9808 3.45358 82.7411 -0.000209964 81.5247V81.524ZM-0.000209964 72.4709V73.0237C3.2566 74.1661 6.46446 75.331 9.6174 76.5235C39.8635 87.9818 53.0996 106.615 65.3592 123.877C80.3157 144.935 93.8348 163.966 134.905 165.654C200.07 168.332 234.238 148.815 261.146 133.444C270.597 128.045 279.151 123.159 287.819 119.945C316.919 109.155 347.624 117.205 419.461 188H420.384C348.021 116.636 316.968 108.576 287.41 119.537C278.673 122.776 270.09 127.679 260.607 133.096C233.81 148.403 199.783 167.841 134.959 165.177C94.3637 163.509 80.9365 144.605 66.0791 123.688C53.7718 106.358 40.4867 87.6539 10.0305 76.1165C6.74382 74.8733 3.39867 73.6598 -0.000209964 72.4709ZM729.289 188C763.289 183.412 799.205 181.422 840.001 188H836.853C798.832 182.222 765.031 183.873 733 188H729.289ZM-0.000209964 0C2.94859 0.986473 5.84127 2.00631 8.67307 3.06532C32.7016 12.0524 39.405 28.9211 41.9097 47.1353C43.0391 50.947 43.8724 54.8653 44.5481 58.8235C45.8005 62.797 46.7818 66.8618 47.6438 70.9376C49.0811 75.1562 50.2714 79.4408 51.3996 83.6993C52.7498 87.2927 53.9676 90.9042 55.1721 94.4751C55.5363 95.5515 55.898 96.6243 56.2609 97.6913C56.8531 99.0832 57.4357 100.471 58.0159 101.851C59.587 105.597 61.139 109.293 62.8116 112.867C69.8373 117.005 79.5707 119.637 93.1424 120.195C158.503 122.881 186.871 103.874 209.773 88.5294C215.643 84.5959 221.156 80.9017 226.853 77.8639C255.538 62.5699 288.463 64.0533 392.467 136.058C427.875 160.573 459.671 177.15 488.947 187.999H487.424C458.396 177.115 426.898 160.62 391.876 136.373C288.322 64.6793 255.688 63.1234 227.371 78.2215C221.716 81.2375 216.213 84.9237 210.356 88.8486C187.34 104.27 158.829 123.373 93.0887 120.671C79.9182 120.13 70.3125 117.679 63.2628 113.819C63.6723 114.679 64.0926 115.532 64.5211 116.375C71.8836 121.718 82.5697 125.167 98.3702 125.816C163.683 128.5 192.768 109.427 216.16 94.0841C222.448 89.9613 228.326 86.1053 234.39 83.0073C263.317 68.2255 296.246 70.6315 396.372 142.962C423.574 162.616 448.576 177.259 471.924 187.999H470.6C447.454 177.271 422.683 162.715 395.77 143.269C296.081 71.2553 263.446 68.7826 234.895 83.3722C228.862 86.4549 223 90.2985 216.734 94.4084C193.228 109.824 164.002 128.992 98.3153 126.292C83.1141 125.667 72.5772 122.51 65.1586 117.593C65.5025 118.229 65.8463 118.862 66.1973 119.491C73.8307 126.245 85.3872 130.69 103.596 131.439C168.855 134.12 198.653 114.984 222.535 99.6468C229.248 95.3361 235.495 91.3235 241.938 88.1704C271.085 73.9057 303.965 77.2227 400.276 149.866C421.016 165.517 440.438 178.046 458.805 187.999H457.612C439.412 178.084 420.182 165.648 399.666 150.166C303.778 77.8414 271.194 74.4649 242.431 88.5418C236.03 91.676 229.801 95.6763 223.107 99.9747C199.113 115.385 169.17 134.614 103.544 131.915C86.2181 131.204 74.8395 127.215 67.1082 121.108L67.4401 121.681L67.6227 121.985C75.5069 130.462 87.8489 136.199 108.825 137.061C174.024 139.741 204.534 120.545 228.904 105.211C236.054 100.714 242.675 96.5481 249.504 93.3501C278.847 79.6062 311.626 83.8205 404.186 156.772C419.641 168.962 434.337 179.278 448.401 187.999H447.294C433.374 179.334 418.839 169.11 403.562 157.062C311.413 84.4356 278.933 80.1676 249.983 93.728C243.205 96.9021 236.601 101.059 229.47 105.544C204.987 120.947 174.335 140.234 108.771 137.538C89.7089 136.754 77.6857 132.029 69.6463 124.908C77.8886 134.834 90.8024 141.729 114.053 142.685C179.185 145.361 210.405 126.109 235.265 110.782C242.86 106.097 249.866 101.778 257.075 98.5487C286.594 85.3277 319.22 90.4248 408.091 163.675C419.116 172.771 429.739 180.836 440.016 187.998H438.966C428.816 180.905 418.331 172.929 407.458 163.958C318.984 91.0348 286.66 85.8899 257.542 98.9309C250.385 102.136 243.398 106.444 235.824 111.115C210.853 126.513 179.491 145.852 113.996 143.16C93.5447 142.32 80.9914 136.975 72.5808 129.042C81.3746 139.737 94.7397 147.298 119.278 148.307C184.341 150.981 216.268 131.677 241.614 116.354C249.669 111.483 257.062 107.013 264.655 103.765C294.328 91.0689 326.75 97.0341 411.997 170.58C419.264 176.856 426.346 182.642 433.27 187.999H432.265C425.455 182.718 418.491 177.021 411.353 170.856C326.491 97.6412 294.373 91.6346 265.109 104.156C257.569 107.383 250.199 111.838 242.17 116.692C216.714 132.084 184.645 151.473 119.225 148.784C96.7191 147.859 83.5069 141.526 74.6103 132.34C84.1503 144.221 98.0491 152.842 124.508 153.93C189.495 156.601 222.128 137.25 247.957 121.93C256.476 116.877 264.26 112.262 272.241 109.002C302.046 96.8296 334.219 103.648 415.903 177.485C419.956 181.153 423.945 184.642 427.886 187.998H426.921C423.081 184.724 419.197 181.322 415.252 177.751C333.936 104.248 302.069 97.3953 272.679 109.398C264.767 112.629 257.004 117.232 248.507 122.272C222.566 137.656 189.794 157.093 124.453 154.407C97.9142 153.316 83.8734 144.787 74.2534 132.998C85.0039 147.337 99.4674 158.309 129.735 159.553C194.642 162.222 227.973 142.824 254.289 127.51C263.284 122.274 271.466 117.514 279.826 114.26C309.745 102.611 341.623 110.264 419.811 184.39C421.1 185.614 422.38 186.809 423.656 187.999H422.718C421.531 186.892 420.343 185.785 419.146 184.647C341.315 110.86 309.744 103.178 280.251 114.662C271.958 117.889 263.803 122.636 254.833 127.856C228.409 143.234 194.937 162.712 129.68 160.029C89.4426 158.375 76.8512 139.832 64.1403 118.904C63.7631 118.398 63.3965 117.884 63.0408 117.363C61.7383 115.966 60.5695 114.49 59.5118 112.945C58.066 111.471 56.7898 109.9 55.6556 108.243C51.3065 103.995 48.5272 98.8678 46.6923 93.1695C38.1407 83.1357 26.8267 73.963 9.45027 67.3906C6.35463 66.2214 3.20407 65.0811 0.00217773 63.9662V63.415C3.34494 64.5755 6.63518 65.7644 9.86453 66.9844C26.6046 73.316 37.7492 82.0245 46.2111 91.5875C45.4411 88.9153 44.8621 86.1285 44.4072 83.2576C36.5792 73.4146 25.911 64.54 9.27835 58.2592C6.24121 57.1132 3.14677 55.9983 0.000983881 54.9096V54.3597C3.28883 55.4942 6.52176 56.6562 9.69381 57.8523C25.8477 63.9525 36.4109 72.4622 44.2055 81.9222C43.8724 79.6113 43.6133 77.2503 43.3984 74.8552C36.1542 64.6096 25.8644 55.4449 9.11002 49.1285C6.13018 48.0064 3.09065 46.9155 0.00217773 45.8521V45.3023C3.23392 46.4107 6.41074 47.5487 9.52548 48.7223C25.8143 54.8624 36.0348 63.6507 43.2826 73.4988C43.1095 71.4257 42.9651 69.3287 42.8278 67.2187C36.1757 56.2572 26.2142 46.4991 8.94288 39.9971C6.01916 38.8975 3.03574 37.8312 0.00217773 36.7933V36.2449C3.17661 37.3271 6.29613 38.4413 9.35357 39.5909C26.1068 45.8957 36.036 55.2077 42.7299 65.702L42.663 64.6285C42.5675 63.1292 42.4732 61.6248 42.3705 60.1183C36.3942 48.2153 26.8028 37.6419 8.77455 30.8664C5.90574 29.79 2.98082 28.7463 0.00337157 27.7322V27.1853C3.12289 28.2429 6.18629 29.3331 9.18643 30.4595C26.5605 36.9898 36.1637 46.9764 42.2404 58.2752C42.1222 56.67 41.9933 55.0641 41.8452 53.4639C36.6592 40.428 27.5561 28.8464 8.60383 21.735C5.79233 20.6811 2.92471 19.6598 0.00337157 18.6705V18.1235C3.06558 19.1572 6.07288 20.2227 9.01571 21.3274C27.0081 28.0797 36.2055 38.7764 41.5886 50.9158C41.4537 49.6776 41.3044 48.4438 41.1361 47.2165C36.8848 32.8757 28.4372 20.0972 8.4355 12.6029C5.6801 11.5715 2.86741 10.5741 0.00337157 9.60723V9.06104C3.00947 10.0707 5.95946 11.1138 8.84618 12.1953C26.952 18.9773 35.6838 29.996 40.3911 42.575C37.3719 26.2844 29.9617 11.5903 8.26239 3.47369C5.56311 2.46401 2.80652 1.48986 -0.000209964 0.546187V0Z" fill="#D8E0E6"/>
</g>
<defs>
<clipPath id="clip0_4242_10776">
<rect width="840" height="188" fill="white"/>
</clipPath>
</defs>
</svg>
