<svg width="840" height="270" viewBox="0 0 840 270" fill="none" xmlns="http://www.w3.org/2000/svg">
<path d="M638.164 82.0589L637.583 81.2415C638.224 82.3824 638.87 83.5322 639.515 84.6952L639.902 85.2812C639.322 84.1968 638.742 83.1223 638.164 82.0589ZM630.574 68.4389C630.012 67.6957 629.45 66.9424 628.887 66.1903C629.827 67.7743 630.775 69.3816 631.726 71.0143C632.31 71.8583 632.897 72.7234 633.478 73.5586C632.506 71.8229 631.537 70.1171 630.574 68.4378V68.4389ZM610.243 38.7609L609.143 37.3508C609.929 38.4884 610.717 39.6426 611.51 40.8112L612.719 42.4317C611.89 41.1878 611.063 39.9649 610.241 38.7598L610.243 38.7609ZM621.623 53.4365C620.676 52.2347 619.724 50.9941 618.773 49.7701C620.078 51.8071 621.391 53.8918 622.716 56.0241L622.774 56.1027C623.732 57.4253 624.677 58.7091 625.628 60.0028C624.283 57.7576 622.948 55.5699 621.625 53.4365H621.623ZM608.683 33.9569C607.34 32.3064 606.002 30.6715 604.679 29.0621C606.791 31.9586 608.927 34.9859 611.088 38.145C612.482 39.935 613.891 41.7472 615.305 43.5848C613.073 40.2164 610.866 37.0096 608.685 33.958L608.683 33.9569ZM277.684 -0.000113024H273.265C250.346 3.81916 224.575 5.67563 195.216 4.46605C182.078 3.92439 170.054 2.37253 158.834 -0.000113024H155.285C167.487 2.78127 180.635 4.59565 195.132 5.19268C226.418 6.48202 253.64 4.31097 277.684 -0.000113024ZM322.108 -0.000113024H319.303C287.532 9.14599 249.748 14.9724 203.176 13.0528C177.328 11.9872 155.089 7.19426 134.406 -0.000113024H131.992C153.321 7.59635 176.263 12.6751 203.094 13.7816C251.053 15.7577 289.722 9.57134 322.108 -0.000113024ZM356.104 -0.000113024H353.791C316.626 13.7517 270.924 24.1041 211.133 21.6395C175.198 20.1563 144.741 11.8642 115.119 -0.000113024H112.939C143.185 12.2497 174.233 20.8486 211.05 22.3672C272.085 24.8817 318.48 14.1239 356.104 -0.000113024ZM386.037 -0.000113024H383.961C342.64 17.6773 290.686 33.1771 219.089 30.2251C173.806 28.3587 134.588 16.3769 94.1681 -0.000113024H92.0123C133.104 16.7491 172.891 29.0532 219.009 30.954C291.796 33.9536 344.334 17.9963 386.039 -0.000113024H386.037ZM414.093 -0.000113024H412.117C367.219 20.8231 309.913 42.2268 227.053 38.8107C172.604 36.5666 122.682 20.8464 68.8534 -0.000113024H66.6195C121.197 21.2075 171.712 37.2622 226.967 39.5407C311.031 43.0066 368.851 21.0801 414.093 -0.000113024ZM441.474 -0.000113024H439.535C391.328 22.9665 329.193 51.2821 235.008 47.3997C171.446 44.7778 107.608 25.564 37.9784 -0.000113024H35.6609C106.087 25.9262 170.596 45.4756 234.925 48.1263C330.349 52.0597 392.94 23.1415 441.474 -0.000113024ZM469.244 -0.000113024H467.254C462.628 2.12663 457.882 4.3586 452.993 6.65704C403.51 29.9205 339.594 59.9685 242.966 55.9853C170.559 53.0001 88.4497 31.0825 2.34661 -0.000113024H0C86.8828 31.4668 169.781 53.7001 242.884 56.713C339.966 60.714 404.083 30.5718 453.725 7.23414C459.06 4.72746 464.226 2.29832 469.244 -0.000113024ZM840 117.343V116.582C767.397 118.689 692.891 96.0965 594.362 -0.000113024H592.948C692.044 96.79 766.964 119.491 840 117.343ZM840 129.972V129.209C766.773 131.769 692.654 108.109 593.048 3.3772L589.814 -0.0012207H588.429C589.62 1.23938 590.807 2.47776 592.012 3.74163C691.989 108.863 766.428 132.572 839.998 129.97L840 129.972ZM840 142.601V141.84C767.875 144.85 696.028 121.344 598.993 13.9223V13.9201C594.635 9.10168 590.383 4.47269 586.219 -0.000113024H584.843C589.109 4.58125 593.471 9.32765 597.946 14.2745C695.348 122.103 767.515 145.657 839.998 142.601H840ZM840 155.203V154.439C768.92 157.952 699.372 134.695 604.937 24.4663C597.459 15.7522 590.287 7.61185 583.389 -0.000113024H582.027C589.014 7.70601 596.289 15.9615 603.878 24.8063C698.676 135.459 768.549 158.767 839.998 155.204L840 155.203ZM840 267.264V266.489C778.816 276.444 733.714 263.646 672.355 147.023C733.688 250.753 780.315 263.776 840 255.011V254.238C777.618 263.382 729.573 248.481 663.539 129.368C729.422 235.824 778.932 250.722 840 242.692V241.922C777.076 250.178 726.479 233.86 657.075 116.568L656.112 114.594C725.77 221.222 777.923 237.568 840 230.315V229.549C776.787 236.916 723.898 219.583 651.849 105.972C651.151 104.578 650.459 103.202 649.768 101.837C722.584 206.944 777.158 224.367 840 217.887V217.125C776.164 223.685 720.881 205.362 645.887 94.2733C644.915 92.398 643.95 90.5537 642.986 88.7338C719.109 192.777 776.18 211.199 840 205.423V204.662C775.253 210.494 717.456 191.205 639.24 81.7366C637.973 79.4027 636.716 77.1187 635.469 74.8812C715.199 178.579 774.928 198.032 840 192.913V192.141C773.997 197.306 713.483 176.996 631.622 68.0889C630.07 65.3895 628.532 62.7665 627.006 60.2166C710.764 164.421 773.366 184.907 840 180.368V179.603C772.317 184.185 708.775 162.752 622.612 53.0134C620.522 49.6593 618.459 46.446 616.414 43.3644C705.22 150.021 771.212 171.822 840.002 167.801V167.035C769.904 171.104 702.684 148.173 610.886 35.0136C610.387 34.3977 609.894 33.7996 609.398 33.1915C601.729 22.5301 594.342 13.7717 587.13 6.67587C585.154 4.39737 583.205 2.18201 581.277 0.000994654H577.347C583.783 7.51992 590.498 15.8519 597.525 25.05C605.015 35.0291 612.864 46.1447 621.134 58.4909C626.804 67.2426 632.669 76.6634 638.762 86.792C640.953 90.5947 643.172 94.5026 645.42 98.5201C647.227 101.752 649.018 104.895 650.801 107.99L651.355 109.052C654.46 115.016 657.521 120.732 660.545 126.249C727.766 262.911 774.813 277.878 840.004 267.266L840 267.264ZM600.393 -0.000113024C695.59 84.7971 769.131 105.633 840 103.942V104.701C768.698 106.428 694.728 85.4728 598.939 -0.000113024H600.391H600.393ZM608.131 -0.000113024C699.305 73.717 771.261 92.6328 840 91.3014V92.0602C770.823 93.4259 698.424 74.3849 606.631 -0.000113024H608.131ZM617.886 -0.000113024C704.244 62.8385 773.893 79.683 840 78.655V79.4116C773.441 80.4705 703.32 63.4953 616.316 -0.000113024H617.884H617.886ZM630.05 -0.000113024C710.662 52.1605 777.152 66.7896 840 66.0142V66.7719C776.683 67.5716 709.691 52.8007 628.401 -0.000113024H630.05ZM645.233 -0.000113024C718.965 41.6697 781.246 53.9339 840 53.3645V54.12C780.737 54.7092 717.913 42.3077 643.445 -0.000113024H645.231H645.233ZM664.39 -0.000113024C729.798 31.3804 786.484 41.1291 840.002 40.7303V41.4847C785.919 41.9023 728.621 32.0063 662.41 -0.000113024H664.39ZM689.239 -0.000113024C744.316 21.3172 793.433 28.3531 840 28.0884V28.8405C792.786 29.1208 742.953 21.9087 686.99 -0.000113024H689.239ZM723.936 -0.000113024C765.298 11.4965 803.476 15.6115 840.002 15.4553V16.2063C802.616 16.3758 763.502 12.068 721.035 -0.000113024H723.936Z" fill="#D8E0E6"/>
</svg>
