<svg width="61" height="48" viewBox="0 0 61 48" fill="none" xmlns="http://www.w3.org/2000/svg">
<path d="M6.07282 6.876C10.2818 2.313 16.6508 0 24.9998 0H27.9998V8.457L25.5878 8.94C21.4778 9.762 18.6188 11.379 17.0888 13.752C16.2905 15.0304 15.8377 16.4941 15.7748 18H24.9998C25.7955 18 26.5585 18.3161 27.1211 18.8787C27.6837 19.4413 27.9998 20.2043 27.9998 21V42C27.9998 45.309 25.3088 48 21.9998 48H3.99982C3.20417 48 2.44111 47.6839 1.8785 47.1213C1.31589 46.5587 0.999821 45.7956 0.999821 45V30L1.00882 21.243C0.981821 20.91 0.411821 13.02 6.07282 6.876ZM54.9998 48H36.9998C36.2042 48 35.4411 47.6839 34.8785 47.1213C34.3159 46.5587 33.9998 45.7956 33.9998 45V30L34.0088 21.243C33.9818 20.91 33.4118 13.02 39.0728 6.876C43.2818 2.313 49.6508 0 57.9998 0H60.9998V8.457L58.5878 8.94C54.4778 9.762 51.6188 11.379 50.0888 13.752C49.2905 15.0304 48.8377 16.4941 48.7748 18H57.9998C58.7955 18 59.5585 18.3161 60.1211 18.8787C60.6838 19.4413 60.9998 20.2043 60.9998 21V42C60.9998 45.309 58.3088 48 54.9998 48Z" fill="#0277FA"/>
</svg>
