<svg width="269" height="358" viewBox="0 0 269 358" fill="none" xmlns="http://www.w3.org/2000/svg">
<path d="M38.951 334.167L118.52 334.167C126.481 334.167 132.934 327.71 132.934 319.744L132.934 259.908C132.934 245.571 144.55 233.945 158.882 233.945L218.682 233.945C226.643 233.945 233.096 227.488 233.096 219.522L233.096 139.906C233.096 131.94 226.643 125.483 218.682 125.483L139.113 125.483C131.152 125.483 124.699 131.94 124.699 139.906L124.699 199.742C124.699 214.079 113.083 225.705 98.7512 225.705L38.951 225.705C30.9895 225.705 24.5364 232.162 24.5364 240.128L24.5364 319.744C24.5364 327.71 30.9895 334.167 38.951 334.167Z" fill="url(#paint0_linear_17_409)" fill-opacity="0.5"/>
<path d="M164.359 357.354L243.928 357.354C251.89 357.354 258.343 350.897 258.343 342.931L258.343 283.095C258.343 268.758 269.958 257.132 284.29 257.132L344.09 257.132C352.052 257.132 358.505 250.675 358.505 242.709L358.505 163.093C358.505 155.127 352.052 148.67 344.09 148.67L264.522 148.67C256.56 148.67 250.107 155.127 250.107 163.093L250.107 222.929C250.107 237.266 238.492 248.892 224.16 248.892L164.359 248.892C156.398 248.892 149.945 255.349 149.945 263.315L149.945 342.931C149.945 350.897 156.398 357.354 164.359 357.354Z" fill="url(#paint1_linear_17_409)" fill-opacity="0.5"/>
<path d="M14.4145 208.68L93.9831 208.68C101.945 208.68 108.398 202.224 108.398 194.257L108.398 134.422C108.398 120.084 120.013 108.459 134.345 108.459L194.145 108.459C202.107 108.459 208.56 102.002 208.56 94.0357L208.56 14.4231C208.56 6.45685 202.107 -1.20497e-06 194.145 -8.56967e-07L114.577 2.62109e-06C106.615 2.9691e-06 100.162 6.45685 100.162 14.4231L100.162 74.2589C100.162 88.5961 88.5467 100.222 74.2147 100.222L14.4145 100.222C6.45301 100.222 -1.09574e-05 106.679 -1.06092e-05 114.645L-7.12903e-06 194.261C-6.78082e-06 202.227 6.45302 208.684 14.4145 208.684L14.4145 208.68Z" fill="url(#paint2_linear_17_409)" fill-opacity="0.5"/>
<defs>
<linearGradient id="paint0_linear_17_409" x1="1.09016" y1="207.532" x2="206.866" y2="0.428614" gradientUnits="userSpaceOnUse">
<stop stop-color="#0E49A0"/>
<stop offset="0.85" stop-color="white" stop-opacity="0"/>
</linearGradient>
<linearGradient id="paint1_linear_17_409" x1="1.09016" y1="207.532" x2="206.866" y2="0.428614" gradientUnits="userSpaceOnUse">
<stop stop-color="#0E49A0"/>
<stop offset="0.85" stop-color="white" stop-opacity="0"/>
</linearGradient>
<linearGradient id="paint2_linear_17_409" x1="1.09016" y1="207.532" x2="206.866" y2="0.428614" gradientUnits="userSpaceOnUse">
<stop stop-color="#0E49A0"/>
<stop offset="0.85" stop-color="white" stop-opacity="0"/>
</linearGradient>
</defs>
</svg>
